<?xml version="1.0" standalone="no"?>
<!DOCTYPE svg PUBLIC "-//W3C//DTD SVG 20010904//EN"
 "http://www.w3.org/TR/2001/REC-SVG-20010904/DTD/svg10.dtd">
<svg version="1.0" xmlns="http://www.w3.org/2000/svg"
 width="400.000000pt" height="400.000000pt" viewBox="0 0 400.000000 400.000000"
 preserveAspectRatio="xMidYMid meet">

<g transform="translate(0.000000,400.000000) scale(0.100000,-0.100000)"
fill="#000000" stroke="none">
<path d="M0 2000 l0 -2000 2000 0 2000 0 0 2000 0 2000 -2000 0 -2000 0 0
-2000z m1280 1409 c0 -20 -112 -103 -124 -92 -12 12 -5 20 34 42 22 12 45 31
50 42 11 20 40 26 40 8z m1441 -21 c16 1 29 -2 29 -7 0 -5 -13 -37 -29 -70
-21 -45 -31 -58 -39 -48 -14 17 -52 107 -52 123 0 16 31 23 48 10 8 -5 27 -9
43 -8z m444 -36 c5 -19 1 -25 -30 -38 -41 -17 -55 -12 -55 20 0 15 10 27 33
38 35 17 41 15 52 -20z m-1065 -4 c44 -13 76 -32 99 -55 42 -42 73 -59 128
-68 23 -3 68 -22 100 -42 32 -19 76 -43 98 -53 54 -24 112 -82 135 -134 16
-37 23 -44 56 -51 82 -15 177 -91 208 -167 18 -43 32 -182 16 -158 -9 13 -10
13 -10 0 0 -23 -56 -137 -72 -147 -26 -15 -88 -106 -100 -145 -15 -49 -31 -44
-42 15 -9 44 -12 48 -55 63 -25 10 -50 20 -54 24 -5 4 1 48 13 98 34 144 50
254 35 242 -7 -6 -15 -29 -18 -53 -11 -85 -27 -137 -42 -137 -7 0 -18 14 -24
30 -11 34 -22 37 -42 14 -25 -31 -73 -47 -139 -47 -79 0 -129 15 -160 48 l-23
24 -33 -28 c-50 -44 -93 -54 -211 -48 -78 4 -113 10 -143 26 -50 26 -78 26
-133 2 -86 -39 -200 -33 -247 14 l-24 24 -31 -33 c-26 -29 -39 -35 -92 -41
-70 -8 -131 0 -183 23 -19 8 -41 14 -48 13 -45 -7 -54 67 -22 172 26 84 83
139 174 165 56 16 63 21 83 62 25 52 76 100 143 133 26 13 60 33 76 44 28 20
94 44 156 57 14 3 50 27 80 52 61 52 101 71 173 83 60 10 90 6 175 -21z
m-1090 -104 c0 -24 -8 -42 -25 -58 -31 -29 -31 -32 -2 -40 30 -7 63 -66 52
-92 -4 -11 -9 -14 -12 -8 -3 8 -29 3 -83 -16 l-80 -28 0 54 c0 45 9 74 52 165
l52 111 23 -26 c15 -17 23 -40 23 -62z m2207 -614 c7 -41 17 -88 23 -104 9
-27 6 -37 -40 -105 -28 -41 -53 -85 -56 -98 -5 -17 -13 -23 -33 -22 -20 0 -22
2 -8 7 13 6 3 15 -47 39 l-65 32 -54 -24 c-30 -13 -74 -29 -98 -35 -24 -6 -50
-19 -56 -28 -7 -9 -13 -11 -13 -5 0 32 56 69 135 90 11 2 27 7 35 10 8 4 19 5
23 4 5 -1 6 3 3 8 -7 10 92 147 105 144 4 -2 5 5 2 14 -4 11 -2 14 5 9 9 -5
35 25 37 44 0 3 7 27 14 53 13 45 16 48 45 45 30 -3 31 -5 43 -78z m-2258
-126 c31 -74 36 -124 10 -124 -5 0 -28 39 -51 88 -23 48 -46 90 -51 94 -9 5 9
11 48 17 6 0 26 -33 44 -75z m-50 -143 c61 -120 63 -128 41 -134 -21 -5 -48
44 -116 213 -33 80 -34 85 -17 98 16 12 19 8 34 -40 9 -29 35 -91 58 -137z
m367 7 c4 -5 -4 -8 -17 -6 -12 1 -24 8 -26 15 -5 14 34 6 43 -9z m1769 -53
l20 -20 -42 -38 c-24 -23 -44 -34 -48 -27 -3 5 0 10 8 10 7 0 26 13 40 28 l28
29 -40 28 c-23 15 -38 32 -35 37 6 9 30 -7 69 -47z m-1795 -52 c0 -13 47 -63
59 -63 6 0 14 -7 17 -15 4 -8 11 -12 18 -8 6 3 8 3 4 -2 -4 -4 2 -25 12 -46
l20 -38 -36 -22 -35 -22 -30 34 c-16 19 -36 50 -44 69 -9 21 -31 45 -56 60
l-40 25 38 17 c40 18 73 23 73 11z m418 -69 c-4 -3 -16 -3 -28 1 -17 5 -19 9
-9 21 11 13 14 13 28 0 8 -9 12 -18 9 -22z m712 22 c0 -15 -18 -31 -26 -23 -7
7 7 37 17 37 5 0 9 -6 9 -14z m163 -6 c23 -19 31 -20 65 -9 43 13 100 0 122
-27 7 -8 30 -14 51 -14 29 0 45 -6 61 -25 13 -15 32 -25 49 -25 51 0 59 -9 58
-59 0 -37 -2 -42 -9 -24 -6 15 -21 24 -47 29 -21 4 -51 17 -66 30 -16 13 -42
24 -58 24 -16 0 -47 12 -69 26 -35 23 -46 26 -89 20 -36 -5 -59 -2 -85 10 -39
19 -26 24 -126 -47 -25 -18 -62 -36 -83 -41 -21 -5 -52 -18 -68 -30 -25 -19
-33 -20 -49 -10 -30 19 -56 14 -90 -15 l-33 -27 27 -23 c27 -23 28 -23 57 -6
16 10 29 21 29 25 0 4 6 8 13 8 6 0 34 16 61 35 58 41 69 43 91 13 10 -13 19
-18 21 -12 3 6 11 19 18 29 13 18 15 18 52 -4 l38 -23 17 21 c23 29 39 26 82
-12 21 -18 66 -45 102 -61 l64 -28 30 21 c48 35 58 29 64 -41 3 -35 11 -76 18
-93 7 -16 13 -32 14 -35 1 -3 12 -27 24 -55 17 -38 22 -69 23 -135 0 -98 -16
-162 -61 -238 -17 -29 -31 -55 -31 -57 0 -2 -24 -39 -52 -81 -59 -85 -149
-174 -203 -200 -19 -9 -35 -20 -35 -25 0 -5 -7 -9 -15 -9 -9 0 -33 -11 -54
-24 -21 -14 -41 -22 -44 -19 -7 6 -14 -24 -21 -92 -3 -27 -10 -73 -16 -102
-10 -46 -16 -55 -53 -76 -23 -14 -53 -28 -67 -32 -14 -4 -53 -25 -88 -45 -107
-65 -227 -71 -327 -18 -22 11 -78 40 -124 64 -46 23 -90 49 -96 56 -13 14 -44
172 -46 229 0 19 -3 29 -5 22 -6 -14 -28 -8 -66 19 -14 10 -33 18 -42 18 -8 0
-19 6 -23 13 -4 7 -25 23 -45 36 -48 29 -141 130 -204 223 -90 132 -130 253
-121 364 5 67 44 177 59 168 5 -4 8 0 7 7 -2 8 3 38 10 66 9 38 10 61 3 82 -9
26 -8 29 6 24 9 -3 31 -19 49 -36 l32 -30 71 57 c77 63 76 63 111 2 10 -18 12
-18 21 -3 5 10 16 17 23 17 8 0 15 4 15 9 0 4 16 28 35 52 40 51 42 59 15 59
-11 0 -38 7 -61 17 -33 13 -48 14 -70 6 -39 -15 -46 1 -15 32 29 28 58 31 100
10 15 -8 47 -15 69 -15 28 0 48 -7 64 -22 21 -19 26 -20 63 -9 33 10 46 9 69
-2 18 -9 47 -13 78 -10 45 5 53 2 85 -26 26 -23 46 -31 72 -31 20 0 50 -7 65
-15 27 -13 30 -13 56 15 32 33 75 40 95 15 17 -21 29 -19 56 10 12 13 35 27
51 30 15 3 35 10 43 16 8 5 26 15 40 21 14 7 40 25 58 40 39 33 51 34 85 8z
m-543 -6 c0 -14 -3 -14 -15 -4 -8 7 -15 14 -15 16 0 2 7 4 15 4 8 0 15 -7 15
-16z m190 5 c0 -11 -48 -18 -100 -14 -62 4 -62 4 -56 13 6 10 156 11 156 1z
m120 -10 c0 -5 -10 -9 -21 -9 -18 0 -19 2 -9 15 12 15 30 12 30 -6z m-73 5
c-3 -3 -12 -4 -19 -1 -8 3 -5 6 6 6 11 1 17 -2 13 -5z m-1035 -97 c17 -26 8
-37 -32 -37 -36 0 -43 -4 -61 -35 -28 -47 -45 -45 -21 3 11 20 25 50 31 66 10
25 15 28 43 22 18 -3 36 -12 40 -19z m-422 -129 c15 -19 21 -21 31 -10 17 16
39 15 39 -2 0 -15 58 -102 108 -162 50 -60 38 -21 -20 62 -28 40 -50 76 -47
78 2 2 22 13 44 25 l40 22 28 -32 c27 -29 28 -36 22 -86 -8 -65 -47 -185 -62
-190 -6 -2 -28 24 -47 59 -20 35 -59 95 -86 133 -56 78 -84 125 -74 125 3 0
14 -10 24 -22z m2289 -20 c20 -12 38 -23 40 -25 2 -1 -17 -35 -43 -74 -64 -96
-54 -109 14 -17 52 71 92 104 111 92 16 -9 10 -23 -40 -97 -26 -39 -61 -94
-76 -122 l-29 -50 -18 41 c-26 60 -48 152 -48 200 0 32 5 45 23 57 28 20 24
21 66 -5z"/>
<path d="M1700 2981 c-16 -31 -12 -65 10 -89 12 -12 24 -22 29 -22 4 0 30 19
56 42 l47 42 -28 23 c-37 30 -99 32 -114 4z"/>
<path d="M1630 2107 c0 -2 25 -25 55 -51 55 -47 55 -47 83 -31 l28 17 65 -60
64 -61 27 26 28 27 24 -23 25 -23 20 33 21 34 -27 12 c-16 7 -44 12 -64 13
-23 0 -43 7 -54 20 -22 24 -68 39 -120 39 -55 0 -124 11 -131 22 -5 8 -44 13
-44 6z"/>
<path d="M1556 1917 c-44 -44 -62 -261 -30 -367 18 -61 69 -120 104 -120 35 0
86 59 104 120 10 33 16 91 16 149 0 88 -3 100 -30 147 -30 54 -82 94 -119 94
-12 0 -32 -10 -45 -23z m102 -83 c34 -23 27 -34 -23 -34 -49 0 -53 4 -28 32
20 22 23 22 51 2z"/>
<path d="M2375 1928 c-35 -19 -76 -62 -96 -100 -28 -54 -27 -216 2 -292 69
-187 220 -82 219 153 -1 177 -54 278 -125 239z m27 -95 c28 -25 22 -33 -27
-33 -50 0 -57 11 -23 34 28 20 27 20 50 -1z"/>
<path d="M1901 1456 c-18 -22 -4 -55 26 -62 19 -5 30 -2 40 11 27 37 -37 86
-66 51z"/>
<path d="M2040 1450 c-26 -49 27 -83 64 -41 14 15 15 24 6 40 -14 27 -56 28
-70 1z"/>
<path d="M1942 1165 c-72 -22 -124 -73 -150 -146 -50 -143 -6 -243 109 -250
105 -7 227 0 261 14 53 22 82 83 75 154 -12 111 -73 196 -164 229 -47 16 -76
16 -131 -1z"/>
</g>
</svg>
